<?xml version="1.0" encoding="UTF-8" standalone="no"?>
<!-- Created with Inkscape (http://www.inkscape.org/) -->

<svg
   xmlns:dc="http://purl.org/dc/elements/1.1/"
   xmlns:cc="http://creativecommons.org/ns#"
   xmlns:rdf="http://www.w3.org/1999/02/22-rdf-syntax-ns#"
   xmlns:svg="http://www.w3.org/2000/svg"
   xmlns="http://www.w3.org/2000/svg"
   xmlns:sodipodi="http://sodipodi.sourceforge.net/DTD/sodipodi-0.dtd"
   xmlns:inkscape="http://www.inkscape.org/namespaces/inkscape"
   width="9.1467285mm"
   height="9.2914219mm"
   viewBox="0 0 9.1467285 9.2914219"
   version="1.1"
   id="svg8"
   inkscape:version="0.92.4 (5da689c313, 2019-01-14)"
   sodipodi:docname="at.svg">
  <defs
     id="defs2" />
  <sodipodi:namedview
     id="base"
     pagecolor="#ffffff"
     bordercolor="#666666"
     borderopacity="1.0"
     inkscape:pageopacity="0.0"
     inkscape:pageshadow="2"
     inkscape:zoom="31.678384"
     inkscape:cx="8.0602913"
     inkscape:cy="21.828437"
     inkscape:document-units="mm"
     inkscape:current-layer="text3715"
     showgrid="false"
     fit-margin-top="0"
     fit-margin-left="0"
     fit-margin-right="0"
     fit-margin-bottom="0"
     inkscape:window-width="3840"
     inkscape:window-height="2066"
     inkscape:window-x="0"
     inkscape:window-y="36"
     inkscape:window-maximized="1" />
  <metadata
     id="metadata5">
    <rdf:RDF>
      <cc:Work
         rdf:about="">
        <dc:format>image/svg+xml</dc:format>
        <dc:type
           rdf:resource="http://purl.org/dc/dcmitype/StillImage" />
        <dc:title></dc:title>
      </cc:Work>
    </rdf:RDF>
  </metadata>
  <g
     inkscape:label="Layer 1"
     inkscape:groupmode="layer"
     id="layer1"
     transform="translate(-0.3468406,-0.40438976)">
    <g
       aria-label="@"
       style="font-style:normal;font-weight:normal;font-size:10.58333302px;line-height:1.25;font-family:sans-serif;letter-spacing:0px;word-spacing:0px;fill:#ffffff;fill-opacity:1;stroke:none;stroke-width:0.26458332"
       id="text3715">
      <path
         d="m 7.7832678,4.2297986 q 0,0.849754 -0.7133931,1.6017488 -0.7248382,0.7670346 -1.5755692,0.7670346 -0.362419,0 -0.4577924,-0.2669581 -0.04578,-0.1278391 -0.04578,-0.567756 0,-0.075199 -0.038149,-0.075199 -0.00763,0 -0.236526,0.2406382 -0.2708607,0.285758 -0.5073868,0.4474369 -0.3547891,0.2406383 -0.6599841,0.2406383 -0.606575,0 -0.606575,-0.7745545 0,-0.6767953 0.3814936,-1.4588698 0.4539776,-0.9249534 1.0567376,-0.9249534 0.2327112,0 0.4616074,0.4023172 0.1564125,0.2782379 0.2517859,0.6166355 0.099189,-0.1955186 0.247971,-0.6843151 0.02289,-0.090239 0.087743,-0.2669582 0.076299,-0.1579188 0.2823053,-0.1579188 0.1297084,0 0.2327112,0.093999 0.1030035,0.093999 0.1030035,0.2218384 0,0.04512 -0.8736205,1.8912667 -0.019075,0.041359 -0.019075,0.097759 0,0.1879987 0.1220775,0.3609576 0.1335228,0.1879986 0.3051951,0.1879986 0.6790587,0 1.2627441,-0.7632746 0.5531659,-0.718155 0.5531659,-1.43255 0,-0.8271941 -0.5531659,-1.3009508 -0.5226461,-0.4474368 -1.3733771,-0.4474368 -1.3504876,0 -2.3347414,0.9851132 -0.9804389,0.981353 -0.9804389,2.3123837 0,0.9625532 0.5531658,1.5152694 0.556981,0.5564761 1.5297899,0.5564761 0.5607957,0 1.2055201,-0.2218384 Q 6.089436,7.2076978 6.5281537,6.8655402 v 0.02632 q 0,0.5075965 -0.8698056,0.8384743 -0.6905037,0.263198 -1.3161533,0.263198 -1.1063318,0 -1.8655042,-0.7106348 Q 1.706073,6.5609824 1.706073,5.47811 q 0,-1.42879 1.091072,-2.4740627 1.0834422,-1.0339928 2.5369332,-1.0339928 1.037663,0 1.7319814,0.6128757 0.7172082,0.6354356 0.7172082,1.6468684 z M 4.9792891,4.8313944 Q 4.796172,3.9365207 4.5176816,3.9365207 q -0.3357144,0 -0.6905035,0.5978358 -0.2899354,0.4887966 -0.373864,0.9099137 -0.049594,0.2481582 -0.049594,0.424877 0,0.3985571 0.2365261,0.3985571 0.3395294,0 0.9193999,-0.703115 0.2708604,-0.3271177 0.419643,-0.7331949 z"
         style="font-style:normal;font-variant:normal;font-weight:normal;font-stretch:normal;font-family:Alexander;-inkscape-font-specification:Alexander;fill:#ffffff;stroke-width:0.19391261"
         id="path3736"
         inkscape:connector-curvature="0" />
    </g>
  </g>
</svg>
