<?xml version="1.0" encoding="UTF-8" standalone="no"?>
<svg
   xmlns:dc="http://purl.org/dc/elements/1.1/"
   xmlns:cc="http://creativecommons.org/ns#"
   xmlns:rdf="http://www.w3.org/1999/02/22-rdf-syntax-ns#"
   xmlns:svg="http://www.w3.org/2000/svg"
   xmlns="http://www.w3.org/2000/svg"
   xmlns:sodipodi="http://sodipodi.sourceforge.net/DTD/sodipodi-0.dtd"
   xmlns:inkscape="http://www.inkscape.org/namespaces/inkscape"
   viewBox="0 0 136.06 115.35"
   version="1.1"
   id="svg34"
   sodipodi:docname="Cathead.svg"
   inkscape:version="1.0.1 (3bc2e813f5, 2020-09-07)">
  <metadata
     id="metadata38">
    <rdf:RDF>
      <cc:Work
         rdf:about="">
        <dc:format>image/svg+xml</dc:format>
        <dc:type
           rdf:resource="http://purl.org/dc/dcmitype/StillImage" />
        <dc:title></dc:title>
      </cc:Work>
    </rdf:RDF>
  </metadata>
  <sodipodi:namedview
     pagecolor="#ffffff"
     bordercolor="#666666"
     borderopacity="1"
     objecttolerance="10"
     gridtolerance="10"
     guidetolerance="10"
     inkscape:pageopacity="0"
     inkscape:pageshadow="2"
     inkscape:window-width="1414"
     inkscape:window-height="876"
     id="namedview36"
     showgrid="false"
     inkscape:zoom="3.0895693"
     inkscape:cx="29.550356"
     inkscape:cy="50.601146"
     inkscape:window-x="1660"
     inkscape:window-y="271"
     inkscape:window-maximized="0"
     inkscape:current-layer="svg34" />
  <defs
     id="defs4">
    <style
       id="style2">.cls-1{fill:#1d1d1b;}</style>
  </defs>
  <g
     id="Layer_2"
     data-name="Layer 2">
    <g
       id="Layer_1-2"
       data-name="Layer 1">
      <path
         class="cls-1"
         d="M110.25,100.58a1,1,0,0,0-1.38-.36,28.74,28.74,0,0,1-5.74,1.73,49.94,49.94,0,0,1-5.34.71c-1.45.14-2.94.29-4.39.5a66.2,66.2,0,0,0-12.12,3.16c-1.44.51-2.7,1-3.87,1.44-2,.79-3.81,1.46-5.7,2s-4.56-.1-6.26-.58a7.3,7.3,0,0,0-1.53-.32h0l-.58,0,.3.5a14.57,14.57,0,0,0,8.21,5.78,7.35,7.35,0,0,0,1.55.16,9.39,9.39,0,0,0,4-1,2.15,2.15,0,0,0,.39-.21v.22"
         id="path6" />
      <path
         class="cls-1"
         d="M48.6,92.63h0v0Zm-3.81,0c.52.08,2.6.3,3.63.38h.18a1,1,0,0,0,.78-.27,1.29,1.29,0,0,0,.22-1l0-.45-1-2.28a.73.73,0,0,0-.69-.49c-.6,0-1.29.71-2.1,1.52-.29.3-.58.6-.85.83-.75.65-1,1-.89,1.34s.52.41.7.43"
         id="path8" />
      <path
         class="cls-1"
         d="M46.18,84a5.55,5.55,0,0,1-.44-1.28c-.16-.61-.29-1.14-.76-1.14l-.34.11-.09.08c-.56.49-.93.85-.92.85-1.6,1-2.33,1.79-2.18,2.34s.82.5,1,.5h1.13c1.4,0,2.28-.1,2.59-.61a.85.85,0,0,0,0-.86"
         id="path10" />
      <path
         class="cls-1"
         d="M64,74.88c-2.44-.15-4.83-3.51-4.86-3.55l-.29-.4-.28.41a9.52,9.52,0,0,0-1.49,4.89c.08,3.54,2.49,5.44,7.58,6a7.86,7.86,0,0,0,1,0c4.84,0,6.25-4,7.12-6.56s-.77-5.7-2.18-7a8.59,8.59,0,0,0-5.12-1.51A7.1,7.1,0,0,0,62,68l-1.16.65h1.32a12.13,12.13,0,0,1,3.35.47c.3.12,2.91,1.21,2.49,3.47-.35,1.83-1.49,2.48-4,2.31"
         id="path12" />
      <path
         class="cls-1"
         d="M121.47,88.06a39.88,39.88,0,0,0,3.9-3.69c0,1.34,0,3.94.21,5.95-1.13-.65-2.53-1.43-4.11-2.26m10.24-3.89c.17-2.26,1.32-11.83,1.29-13.77,0-1.37,0-2.56,0-3.42.16-2.51-1-8.88-1.74-13.09-.32-1.78-.57-3.16-.61-3.67-.09-1.06,1.27-4,2.59-6.85.72-1.54,1.46-3.14,2.05-4.6,1.78-4.37-.12-17.59-.2-18.15h-.24a13.15,13.15,0,0,0-2.41-5.09l0-.1-.19-.14a5.85,5.85,0,0,0-3.21-.67c-6.52,0-20.28,4.24-29.66,15.61-2-1.36-9-4.93-13.6-4.43,0-.23,0-.56,0-.88C85.7,20.69,85.46,7.83,72.48.13L72.26,0l-.19.18C71.36.82,70.63,1.4,69.9,2,65,5.88,59.85,9.92,56.1,37.38l-.12.94.7-.63c.92-.84,2.82-1.33,5.09-1.33a12.78,12.78,0,0,1,7.25,2c3.68,2.68,4.48,9.53,4.48,12A7.26,7.26,0,0,1,72,54.83l-.78.9,1.14-.34s2.27-.49,3,0,.85,2.37.82,3l0,.89.63-.63A30.13,30.13,0,0,1,80,55.89c1.46-1.07,8.85-5.65,14.77-7.45a30.09,30.09,0,0,1,8.29-1.23c2.56,0,7.09.44,8.59,3.38,2.26,4.4-.35,10.73-1.28,11.85a5.78,5.78,0,0,1-3.1,1.54l-1.31.2,1.24.46a3.84,3.84,0,0,1,2,1.57c.36.93,0,1.66-.76,3a9.47,9.47,0,0,1-1.57,2l-.48.41.61.18a18.66,18.66,0,0,1,5.72,3.46c3.46,2.82,3.85,6.56,4.17,9.57a5,5,0,0,0,.2,1c-1.13-.54-2.28-1.07-3.4-1.54C105,80.66,92.53,76,82.7,74.63l-.19,1.31c9.69,1.37,22,6,30.69,9.6A121.94,121.94,0,0,1,125.81,92a4.36,4.36,0,0,0,.14.55"
         id="path14" />
      <path
         class="cls-1"
         d="M86,66.15l-.27,1.29a18.8,18.8,0,0,1,4.22,1.41c-.39,1.73-.61,3.13-.61,3.13l1.31.21s.19-1.19.52-2.69a9.43,9.43,0,0,1,1.25.87l.89-1a10.94,10.94,0,0,0-1.8-1.21,23.41,23.41,0,0,1,1-2.44,30.77,30.77,0,0,1,8,6.82l.31.36,1-.89-.31-.35a31.61,31.61,0,0,0-8.44-7.13,40.36,40.36,0,0,1,4.24-6.8l-1-.87A40.88,40.88,0,0,0,92,64a15.14,15.14,0,0,0-2.58-.9,10.09,10.09,0,0,0-3.19-.35L86.3,64a9.58,9.58,0,0,1,2.75.31,14.37,14.37,0,0,1,2.31.81,24.24,24.24,0,0,0-1,2.4A19.65,19.65,0,0,0,86,66.15"
         id="path16" />
      <path
         class="cls-1"
         d="M47.4,82.67c0,1.43,2.14,1.61,4,1.61.76,0,1.55,0,2.27-.06l.72,0,.34.34c1.92,1.81,4.28,3.29,11.82,6.35A19.78,19.78,0,0,0,74,92.75a15.34,15.34,0,0,0,2.76-.3,14.78,14.78,0,0,1,2.46-.3,44.09,44.09,0,0,0,6.21-.85h.74l4.61,0c.87,0,1.66,0,2.27,0,1.79-.1,3.08-.2,4-.32,6.95,4.18,10.56,6.53,13.62,9.75C115,105.19,116,106,116.47,106a.62.62,0,0,0,.3-.09l-.37-.67.29-.52c-.09,0-.88-.54-5-4.89-3-3.16-6.46-5.47-12.77-9.29a.82.82,0,0,0,.35-.3l.08-.37-.1-.17a2.9,2.9,0,0,0-.3-.38l.2-.19-1-1c-1.75-1.83-2.54-2.67-3.42-2.32-.33.14-.62.47-1.21,1.15l-.22.26c-3.32-2-7.23-4.34-12-7.25L80.66,81c4.63,2.84,8.46,5.14,11.73,7.1a2.08,2.08,0,0,1-1,.65c-.42,0-1.46.25-2.82.54a66.22,66.22,0,0,1-9.36,1.5,17.63,17.63,0,0,0-2.66.32c-2.19.39-4.09.72-9.53-1.48-7.34-3-9.6-4.4-11.41-6.1s-5.75-6.29-6.06-6.76l-.26.16c-.34-.39-.66-.63-1.17-.13a2.19,2.19,0,0,0-.43,1l-1.4.33a1.58,1.58,0,0,0-.51-.67c-1.67-1.45-2.23-1.83-2.73-1.83s-.67.33-.92.67a5.43,5.43,0,0,1-.69.79l-.48.42c-1.55,1.38-2.29,2.12-2.22,2.68-9,2.7-17.86,6.16-23.83,8.5-2.94,1.15-5.26,2-6.48,2.44l.39,1.26c1.27-.4,3.61-1.31,6.56-2.47,7.85-3.06,20.71-8.06,32.1-10.71-.08,1-.1,2.18-.1,3.45"
         id="path18" />
      <path
         class="cls-1"
         d="M64.43,93.24c1.37,1.11,5.09,3.57,7.18,3.7l.08-1.32c-1.47-.09-4.74-2.05-6.43-3.41Z"
         id="path20" />
      <path
         class="cls-1"
         d="M70.37,104.4a7.28,7.28,0,0,0-1.22-.08,9,9,0,0,0-3.3.51l-.26.22,0,.21c0,.37.38.68,2.38,1.51a4.34,4.34,0,0,0,1.62.25,6.09,6.09,0,0,0,2.38-.4l.23-.34,0-.22a2.85,2.85,0,0,0-1.8-1.66"
         id="path22" />
      <path
         class="cls-1"
         d="M55.71,58.85l.15,1.31a14.91,14.91,0,0,1,2.38,0,15.13,15.13,0,0,0,.32,2.3l1.28-.31a14.14,14.14,0,0,1-.27-1.85,17.25,17.25,0,0,1,2.58.54l.4-1.26A17.93,17.93,0,0,0,59.48,59c0-.75,0-1.51,0-2.21,1.66.31,3.48,1.12,6.28,3.09l.76-1.09c-3.09-2.17-5.12-3-7-3.34a6.89,6.89,0,0,1,.12-.89c.93-3.86,1.24-4.21,2.18-5.26l.26-.3-1-.87-.25.29c-1.15,1.28-1.52,1.82-2.48,5.83a7.3,7.3,0,0,0-.15,1c-.72,0-1.44,0-2.22,0L56,56.64c.75,0,1.43,0,2.09,0,0,.71,0,1.48,0,2.24a15.33,15.33,0,0,0-2.45,0"
         id="path24" />
      <path
         class="cls-1"
         d="M118.39,94.85C112.39,90.25,101.2,83.6,82,78l-.37,1.28c19,5.53,30.09,12.09,36,16.61Z"
         id="path26" />
      <path
         class="cls-1"
         d="M50.66,72.74c-17.48-.42-39.07,10.76-43.22,13-2.58,1.4-4.94,2.8-4.94,2.8l.68,1.14s2.34-1.39,4.89-2.78c4.1-2.22,25.41-13.28,42.56-12.85Z"
         id="path28" />
      <path
         class="cls-1"
         d="M50.9,69.8l-.07-1.32A120.1,120.1,0,0,0,4.4,79.65,28.46,28.46,0,0,1,0,81.42l.25,1.3a27.54,27.54,0,0,0,4.69-1.85,118.54,118.54,0,0,1,46-11.07"
         id="path30" />
    </g>
  </g>
</svg>
