<?xml version="1.0" encoding="UTF-8" standalone="no"?>
<svg
   xmlns:dc="http://purl.org/dc/elements/1.1/"
   xmlns:cc="http://creativecommons.org/ns#"
   xmlns:rdf="http://www.w3.org/1999/02/22-rdf-syntax-ns#"
   xmlns:svg="http://www.w3.org/2000/svg"
   xmlns="http://www.w3.org/2000/svg"
   xmlns:sodipodi="http://sodipodi.sourceforge.net/DTD/sodipodi-0.dtd"
   xmlns:inkscape="http://www.inkscape.org/namespaces/inkscape"
   viewBox="0 0 136.06 115.35"
   version="1.1"
   id="svg34"
   sodipodi:docname="cat-white.svg"
   inkscape:version="1.0.1 (3bc2e813f5, 2020-09-07)">
  <metadata
     id="metadata38">
    <rdf:RDF>
      <cc:Work
         rdf:about="">
        <dc:format>image/svg+xml</dc:format>
        <dc:type
           rdf:resource="http://purl.org/dc/dcmitype/StillImage" />
        <dc:title></dc:title>
      </cc:Work>
    </rdf:RDF>
  </metadata>
  <sodipodi:namedview
     pagecolor="#ffffff"
     bordercolor="#666666"
     borderopacity="1"
     objecttolerance="10"
     gridtolerance="10"
     guidetolerance="10"
     inkscape:pageopacity="0"
     inkscape:pageshadow="2"
     inkscape:window-width="1414"
     inkscape:window-height="876"
     id="namedview36"
     showgrid="false"
     inkscape:zoom="3.0895693"
     inkscape:cx="83.709867"
     inkscape:cy="50.601146"
     inkscape:window-x="1660"
     inkscape:window-y="271"
     inkscape:window-maximized="0"
     inkscape:current-layer="svg34"
     inkscape:document-rotation="0"
     inkscape:pagecheckerboard="true" />
  <defs
     id="defs4">
    <style
       id="style2">.cls-1{fill:#1d1d1b;}</style>
  </defs>
  <g
     id="Layer_2"
     data-name="Layer 2"
     style="fill:#ffffff">
    <g
       id="Layer_1-2"
       data-name="Layer 1"
       style="fill:#ffffff">
      <path
         class="cls-1"
         d="m 110.25,100.58 a 1,1 0 0 0 -1.38,-0.36 28.74,28.74 0 0 1 -5.74,1.73 49.94,49.94 0 0 1 -5.34,0.71 c -1.45,0.14 -2.94,0.29 -4.39,0.5 a 66.2,66.2 0 0 0 -12.12,3.16 c -1.44,0.51 -2.7,1 -3.87,1.44 -2,0.79 -3.81,1.46 -5.7,2 -1.89,0.54 -4.56,-0.1 -6.26,-0.58 a 7.3,7.3 0 0 0 -1.53,-0.32 v 0 h -0.58 l 0.3,0.5 a 14.57,14.57 0 0 0 8.21,5.78 7.35,7.35 0 0 0 1.55,0.16 9.39,9.39 0 0 0 4,-1 2.15,2.15 0 0 0 0.39,-0.21 v 0.22"
         id="path6"
         style="fill:#ffffff" />
      <path
         class="cls-1"
         d="m 48.6,92.63 z m -3.81,0 c 0.52,0.08 2.6,0.3 3.63,0.38 h 0.18 a 1,1 0 0 0 0.78,-0.27 1.29,1.29 0 0 0 0.22,-1 v -0.45 l -1,-2.28 a 0.73,0.73 0 0 0 -0.69,-0.49 c -0.6,0 -1.29,0.71 -2.1,1.52 -0.29,0.3 -0.58,0.6 -0.85,0.83 -0.75,0.65 -1,1 -0.89,1.34 0.11,0.34 0.52,0.41 0.7,0.43"
         id="path8"
         style="fill:#ffffff" />
      <path
         class="cls-1"
         d="m 46.18,84 a 5.55,5.55 0 0 1 -0.44,-1.28 c -0.16,-0.61 -0.29,-1.14 -0.76,-1.14 l -0.34,0.11 -0.09,0.08 c -0.56,0.49 -0.93,0.85 -0.92,0.85 -1.6,1 -2.33,1.79 -2.18,2.34 0.15,0.55 0.82,0.5 1,0.5 h 1.13 c 1.4,0 2.28,-0.1 2.59,-0.61 a 0.85,0.85 0 0 0 0,-0.86"
         id="path10"
         style="fill:#ffffff" />
      <path
         class="cls-1"
         d="m 64,74.88 c -2.44,-0.15 -4.83,-3.51 -4.86,-3.55 l -0.29,-0.4 -0.28,0.41 a 9.52,9.52 0 0 0 -1.49,4.89 c 0.08,3.54 2.49,5.44 7.58,6 a 7.86,7.86 0 0 0 1,0 c 4.84,0 6.25,-4 7.12,-6.56 0.87,-2.56 -0.77,-5.7 -2.18,-7 A 8.59,8.59 0 0 0 65.48,67.16 7.1,7.1 0 0 0 62,68 l -1.16,0.65 h 1.32 a 12.13,12.13 0 0 1 3.35,0.47 c 0.3,0.12 2.91,1.21 2.49,3.47 -0.35,1.83 -1.49,2.48 -4,2.31"
         id="path12"
         style="fill:#ffffff" />
      <path
         class="cls-1"
         d="m 121.47,88.06 a 39.88,39.88 0 0 0 3.9,-3.69 c 0,1.34 0,3.94 0.21,5.95 -1.13,-0.65 -2.53,-1.43 -4.11,-2.26 m 10.24,-3.89 c 0.17,-2.26 1.32,-11.83 1.29,-13.77 0,-1.37 0,-2.56 0,-3.42 0.16,-2.51 -1,-8.88 -1.74,-13.09 -0.32,-1.78 -0.57,-3.16 -0.61,-3.67 -0.09,-1.06 1.27,-4 2.59,-6.85 0.72,-1.54 1.46,-3.14 2.05,-4.6 1.78,-4.37 -0.12,-17.59 -0.2,-18.15 h -0.24 a 13.15,13.15 0 0 0 -2.41,-5.09 v -0.1 l -0.19,-0.14 a 5.85,5.85 0 0 0 -3.21,-0.67 c -6.52,0 -20.28,4.24 -29.66,15.61 -2,-1.36 -9,-4.93 -13.6,-4.43 0,-0.23 0,-0.56 0,-0.88 C 85.7,20.69 85.46,7.83 72.48,0.13 L 72.26,0 72.07,0.18 C 71.36,0.82 70.63,1.4 69.9,2 65,5.88 59.85,9.92 56.1,37.38 l -0.12,0.94 0.7,-0.63 c 0.92,-0.84 2.82,-1.33 5.09,-1.33 a 12.78,12.78 0 0 1 7.25,2 c 3.68,2.68 4.48,9.53 4.48,12 A 7.26,7.26 0 0 1 72,54.83 l -0.78,0.9 1.14,-0.34 c 0,0 2.27,-0.49 3,0 0.73,0.49 0.85,2.37 0.82,3 v 0.89 l 0.63,-0.63 A 30.13,30.13 0 0 1 80,55.89 c 1.46,-1.07 8.85,-5.65 14.77,-7.45 a 30.09,30.09 0 0 1 8.29,-1.23 c 2.56,0 7.09,0.44 8.59,3.38 2.26,4.4 -0.35,10.73 -1.28,11.85 a 5.78,5.78 0 0 1 -3.1,1.54 l -1.31,0.2 1.24,0.46 a 3.84,3.84 0 0 1 2,1.57 c 0.36,0.93 0,1.66 -0.76,3 a 9.47,9.47 0 0 1 -1.57,2 l -0.48,0.41 0.61,0.18 a 18.66,18.66 0 0 1 5.72,3.46 c 3.46,2.82 3.85,6.56 4.17,9.57 a 5,5 0 0 0 0.2,1 c -1.13,-0.54 -2.28,-1.07 -3.4,-1.54 C 105,80.66 92.53,76 82.7,74.63 l -0.19,1.31 c 9.69,1.37 22,6 30.69,9.6 a 121.94,121.94 0 0 1 12.61,6.46 4.36,4.36 0 0 0 0.14,0.55"
         id="path14"
         style="fill:#ffffff" />
      <path
         class="cls-1"
         d="m 86,66.15 -0.27,1.29 a 18.8,18.8 0 0 1 4.22,1.41 c -0.39,1.73 -0.61,3.13 -0.61,3.13 l 1.31,0.21 c 0,0 0.19,-1.19 0.52,-2.69 a 9.43,9.43 0 0 1 1.25,0.87 l 0.89,-1 a 10.94,10.94 0 0 0 -1.8,-1.21 23.41,23.41 0 0 1 1,-2.44 30.77,30.77 0 0 1 8,6.82 l 0.31,0.36 1,-0.89 -0.31,-0.35 a 31.61,31.61 0 0 0 -8.44,-7.13 40.36,40.36 0 0 1 4.24,-6.8 l -1,-0.87 A 40.88,40.88 0 0 0 92,64 15.14,15.14 0 0 0 89.42,63.1 10.09,10.09 0 0 0 86.23,62.75 L 86.3,64 a 9.58,9.58 0 0 1 2.75,0.31 14.37,14.37 0 0 1 2.31,0.81 24.24,24.24 0 0 0 -1,2.4 A 19.65,19.65 0 0 0 86,66.15"
         id="path16"
         style="fill:#ffffff" />
      <path
         class="cls-1"
         d="m 47.4,82.67 c 0,1.43 2.14,1.61 4,1.61 0.76,0 1.55,0 2.27,-0.06 h 0.72 l 0.34,0.34 c 1.92,1.81 4.28,3.29 11.82,6.35 a 19.78,19.78 0 0 0 7.45,1.84 15.34,15.34 0 0 0 2.76,-0.3 14.78,14.78 0 0 1 2.46,-0.3 44.09,44.09 0 0 0 6.21,-0.85 h 0.74 4.61 c 0.87,0 1.66,0 2.27,0 1.79,-0.1 3.08,-0.2 4,-0.32 6.95,4.18 10.56,6.53 13.62,9.75 4.33,4.46 5.33,5.27 5.8,5.27 a 0.62,0.62 0 0 0 0.3,-0.09 l -0.37,-0.67 0.29,-0.52 c -0.09,0 -0.88,-0.54 -5,-4.89 -3,-3.16 -6.46,-5.47 -12.77,-9.29 a 0.82,0.82 0 0 0 0.35,-0.3 l 0.08,-0.37 -0.1,-0.17 a 2.9,2.9 0 0 0 -0.3,-0.38 l 0.2,-0.19 -1,-1 c -1.75,-1.83 -2.54,-2.67 -3.42,-2.32 -0.33,0.14 -0.62,0.47 -1.21,1.15 l -0.22,0.26 c -3.32,-2 -7.23,-4.34 -12,-7.25 L 80.66,81 c 4.63,2.84 8.46,5.14 11.73,7.1 a 2.08,2.08 0 0 1 -1,0.65 c -0.42,0 -1.46,0.25 -2.82,0.54 a 66.22,66.22 0 0 1 -9.36,1.5 17.63,17.63 0 0 0 -2.66,0.32 c -2.19,0.39 -4.09,0.72 -9.53,-1.48 -7.34,-3 -9.6,-4.4 -11.41,-6.1 -1.81,-1.7 -5.75,-6.29 -6.06,-6.76 l -0.26,0.16 C 48.95,76.54 48.63,76.3 48.12,76.8 a 2.19,2.19 0 0 0 -0.43,1 l -1.4,0.33 a 1.58,1.58 0 0 0 -0.51,-0.67 c -1.67,-1.45 -2.23,-1.83 -2.73,-1.83 -0.5,0 -0.67,0.33 -0.92,0.67 a 5.43,5.43 0 0 1 -0.69,0.79 l -0.48,0.42 c -1.55,1.38 -2.29,2.12 -2.22,2.68 -9,2.7 -17.86,6.16 -23.83,8.5 -2.94,1.15 -5.26,2 -6.48,2.44 l 0.39,1.26 c 1.27,-0.4 3.61,-1.31 6.56,-2.47 7.85,-3.06 20.71,-8.06 32.1,-10.71 -0.08,1 -0.1,2.18 -0.1,3.45"
         id="path18"
         style="fill:#ffffff" />
      <path
         class="cls-1"
         d="m 64.43,93.24 c 1.37,1.11 5.09,3.57 7.18,3.7 l 0.08,-1.32 c -1.47,-0.09 -4.74,-2.05 -6.43,-3.41 z"
         id="path20"
         style="fill:#ffffff" />
      <path
         class="cls-1"
         d="m 70.37,104.4 a 7.28,7.28 0 0 0 -1.22,-0.08 9,9 0 0 0 -3.3,0.51 l -0.26,0.22 v 0.21 c 0,0.37 0.38,0.68 2.38,1.51 a 4.34,4.34 0 0 0 1.62,0.25 6.09,6.09 0 0 0 2.38,-0.4 l 0.23,-0.34 v -0.22 a 2.85,2.85 0 0 0 -1.8,-1.66"
         id="path22"
         style="fill:#ffffff" />
      <path
         class="cls-1"
         d="m 55.71,58.85 0.15,1.31 a 14.91,14.91 0 0 1 2.38,0 15.13,15.13 0 0 0 0.32,2.3 l 1.28,-0.31 a 14.14,14.14 0 0 1 -0.27,-1.85 17.25,17.25 0 0 1 2.58,0.54 l 0.4,-1.26 A 17.93,17.93 0 0 0 59.48,59 c 0,-0.75 0,-1.51 0,-2.21 1.66,0.31 3.48,1.12 6.28,3.09 l 0.76,-1.09 c -3.09,-2.17 -5.12,-3 -7,-3.34 a 6.89,6.89 0 0 1 0.12,-0.89 c 0.93,-3.86 1.24,-4.21 2.18,-5.26 l 0.26,-0.3 -1,-0.87 -0.25,0.29 c -1.15,1.28 -1.52,1.82 -2.48,5.83 a 7.3,7.3 0 0 0 -0.15,1 c -0.72,0 -1.44,0 -2.22,0 L 56,56.64 c 0.75,0 1.43,0 2.09,0 0,0.71 0,1.48 0,2.24 a 15.33,15.33 0 0 0 -2.45,0"
         id="path24"
         style="fill:#ffffff" />
      <path
         class="cls-1"
         d="M 118.39,94.85 C 112.39,90.25 101.2,83.6 82,78 l -0.37,1.28 c 19,5.53 30.09,12.09 36,16.61 z"
         id="path26"
         style="fill:#ffffff" />
      <path
         class="cls-1"
         d="M 50.66,72.74 C 33.18,72.32 11.59,83.5 7.44,85.74 4.86,87.14 2.5,88.54 2.5,88.54 l 0.68,1.14 c 0,0 2.34,-1.39 4.89,-2.78 4.1,-2.22 25.41,-13.28 42.56,-12.85 z"
         id="path28"
         style="fill:#ffffff" />
      <path
         class="cls-1"
         d="M 50.9,69.8 50.83,68.48 A 120.1,120.1 0 0 0 4.4,79.65 28.46,28.46 0 0 1 0,81.42 l 0.25,1.3 a 27.54,27.54 0 0 0 4.69,-1.85 118.54,118.54 0 0 1 46,-11.07"
         id="path30"
         style="fill:#ffffff" />
    </g>
  </g>
</svg>
