<?xml version="1.0" encoding="UTF-8" standalone="no"?>
<svg
   xmlns:dc="http://purl.org/dc/elements/1.1/"
   xmlns:cc="http://creativecommons.org/ns#"
   xmlns:rdf="http://www.w3.org/1999/02/22-rdf-syntax-ns#"
   xmlns:svg="http://www.w3.org/2000/svg"
   xmlns="http://www.w3.org/2000/svg"
   xmlns:sodipodi="http://sodipodi.sourceforge.net/DTD/sodipodi-0.dtd"
   xmlns:inkscape="http://www.inkscape.org/namespaces/inkscape"
   width="37.223999"
   height="37.223999"
   viewBox="0 0 37.223999 37.223999"
   version="1.1"
   id="svg4"
   sodipodi:docname="instagram.svg"
   inkscape:version="1.0.1 (3bc2e813f5, 2020-09-07)">
  <metadata
     id="metadata10">
    <rdf:RDF>
      <cc:Work
         rdf:about="">
        <dc:format>image/svg+xml</dc:format>
        <dc:type
           rdf:resource="http://purl.org/dc/dcmitype/StillImage" />
        <dc:title></dc:title>
      </cc:Work>
    </rdf:RDF>
  </metadata>
  <defs
     id="defs8" />
  <sodipodi:namedview
     pagecolor="#ffffff"
     bordercolor="#666666"
     borderopacity="1"
     objecttolerance="10"
     gridtolerance="10"
     guidetolerance="10"
     inkscape:pageopacity="0"
     inkscape:pageshadow="2"
     inkscape:window-width="3440"
     inkscape:window-height="1361"
     id="namedview6"
     showgrid="false"
     inkscape:snap-bbox="false"
     inkscape:snap-bbox-midpoints="true"
     inkscape:snap-object-midpoints="true"
     inkscape:zoom="21"
     inkscape:cx="30.493959"
     inkscape:cy="26.656255"
     inkscape:window-x="-9"
     inkscape:window-y="-9"
     inkscape:window-maximized="1"
     inkscape:current-layer="svg4"
     fit-margin-top="0"
     fit-margin-left="0"
     fit-margin-right="0"
     fit-margin-bottom="0" />
  <circle
     style="fill:#898f9c;fill-opacity:1;fill-rule:evenodd;stroke-width:1.14617"
     id="path14"
     cx="18.612"
     cy="18.612"
     r="18.612" />
  <path
     d="m 18.612,8.7749995 c 3.204,0 3.584,0.012 4.85,0.07 3.252,0.148 4.771,1.6910005 4.919,4.9190005 0.058,1.265 0.069,1.645 0.069,4.849 0,3.205 -0.012,3.584 -0.069,4.849 -0.149,3.225 -1.664,4.771 -4.919,4.919 -1.266,0.058 -1.644,0.07 -4.85,0.07 -3.204,0 -3.584,-0.012 -4.849,-0.07 -3.26,-0.149 -4.7710005,-1.699 -4.9190005,-4.92 -0.058,-1.265 -0.07,-1.644 -0.07,-4.849 0,-3.204 0.013,-3.583 0.07,-4.849 0.149,-3.227 1.6640005,-4.7710005 4.9190005,-4.9190005 1.266,-0.057 1.645,-0.069 4.849,-0.069 z m 0,-2.163 c -3.259,0 -3.667,0.014 -4.947,0.072 -4.3580005,0.2 -6.7800005,2.618 -6.9800005,6.9800005 -0.059,1.281 -0.073,1.689 -0.073,4.948 0,3.259 0.014,3.668 0.072,4.948 0.2,4.358 2.618,6.78 6.9800005,6.98 1.281,0.058 1.689,0.072 4.948,0.072 3.259,0 3.668,-0.014 4.948,-0.072 4.354,-0.2 6.782,-2.618 6.979,-6.98 0.059,-1.28 0.073,-1.689 0.073,-4.948 0,-3.259 -0.014,-3.667 -0.072,-4.947 -0.196,-4.3540005 -2.617,-6.7800005 -6.979,-6.9800005 -1.281,-0.059 -1.69,-0.073 -4.949,-0.073 z m 0,5.8380005 c -3.403,0 -6.162,2.759 -6.162,6.162 0,3.403 2.759,6.163 6.162,6.163 3.403,0 6.162,-2.759 6.162,-6.163 0,-3.403 -2.759,-6.162 -6.162,-6.162 z m 0,10.162 c -2.209,0 -4,-1.79 -4,-4 0,-2.209 1.791,-4 4,-4 2.209,0 4,1.791 4,4 0,2.21 -1.791,4 -4,4 z m 6.406,-11.845 c -0.796,0 -1.441,0.645 -1.441,1.44 0,0.795 0.645,1.44 1.441,1.44 0.795,0 1.439,-0.645 1.439,-1.44 0,-0.795 -0.644,-1.44 -1.439,-1.44 z"
     id="path2"
     style="fill:#ffffff" />
</svg>
